# xmcd
#
# Track frame offsets:
#	150
#	12548
#	21646
#	35396
#	49048
#	60524
#	70220
#	81247
#	92360
#	106368
#	119247
#	132062
#	143881
#	154652
#	165662
#	176970
#	187300
#	202742
#
# Disc length: 2830 seconds
#
# Revision: 1
# Processed by: cddbd v1.5.1PL0 Copyright (c) Steve Scherf et al.
# Submitted via: EasyCDDAExtractor 6.0.0.1
#
DISCID=010b0c12
DTITLE=Frankie Laine - The Great Frankie Laine - The Great Western Songs - CD 
DTITLE=1
DYEAR=1999
DGENRE=Country
TTITLE0=High Noon (Do Not Forsake Me)
TTITLE1=Rawhide
TTITLE2=Riders In The Sky
TTITLE3=Cool Water
TTITLE4=Mule Train
TTITLE5=Gunfight At The OK Corral
TTITLE6=The 3:10 To Yuma
TTITLE7=North To Alaska
TTITLE8=Don't Fence Me In
TTITLE9=Cry Of The Wild Goose
TTITLE10=Moonlight Gambler
TTITLE11=Wanted Man
TTITLE12=Hummingbird
TTITLE13=Call Of The Wild
TTITLE14=Along The Navajo Trail
TTITLE15=The Hanging Tree
TTITLE16=Tumbling Tumbleweeds
TTITLE17=Blazing Saddles
EXTD=
EXTT0=
EXTT1=
EXTT2=
EXTT3=
EXTT4=
EXTT5=
EXTT6=
EXTT7=
EXTT8=
EXTT9=
EXTT10=
EXTT11=
EXTT12=
EXTT13=
EXTT14=
EXTT15=
EXTT16=
EXTT17=
PLAYORDER=
